<svg width="19" height="11" viewBox="0 0 19 11" fill="none" xmlns="http://www.w3.org/2000/svg">
<path d="M17.7974 2.05992L9.74907 10.1322C9.65326 10.2281 9.54946 10.2961 9.43768 10.3363C9.32589 10.3766 9.20613 10.3964 9.07837 10.3957C8.95062 10.3957 8.83085 10.3759 8.71907 10.3363C8.60729 10.2967 8.50349 10.2287 8.40767 10.1322L0.335348 2.05992C0.111782 1.83636 -3.86358e-07 1.5569 -4.01017e-07 1.22155C-4.15676e-07 0.886203 0.119767 0.598762 0.359302 0.359226C0.598837 0.119691 0.878294 -7.63323e-05 1.19767 -7.63463e-05C1.51705 -7.63603e-05 1.79651 0.119691 2.03605 0.359226L9.07837 7.40155L16.1207 0.359226C16.3443 0.135659 16.6199 0.0238764 16.9476 0.0238764C17.2753 0.0238764 17.5585 0.143644 17.7974 0.383179C18.037 0.622713 18.1567 0.90217 18.1567 1.22155C18.1567 1.54093 18.037 1.82039 17.7974 2.05992Z" fill="black"/>
</svg>
