<svg width="7" height="11" viewBox="0 0 7 11" fill="none" xmlns="http://www.w3.org/2000/svg">
<path d="M4.9349 10.5866L0.526708 5.8523C0.474385 5.79594 0.437236 5.73488 0.415261 5.66913C0.393285 5.60337 0.382472 5.53292 0.382821 5.45777C0.382821 5.38262 0.393634 5.31217 0.415261 5.24642C0.436887 5.18066 0.474036 5.11961 0.526708 5.06324L4.9349 0.314818C5.05698 0.183308 5.20959 0.117554 5.39272 0.117554C5.57585 0.117554 5.73282 0.188005 5.86362 0.328908C5.99443 0.469811 6.05983 0.634198 6.05983 0.822068C6.05983 1.00994 5.99443 1.17433 5.86362 1.31523L2.01791 5.45777L5.86362 9.60032C5.98571 9.73183 6.04675 9.89396 6.04675 10.0867C6.04675 10.2795 5.98135 10.4461 5.85054 10.5866C5.71974 10.7275 5.56713 10.798 5.39272 10.798C5.21831 10.798 5.0657 10.7275 4.9349 10.5866Z" fill="white"/>
</svg>
