<svg xmlns="http://www.w3.org/2000/svg" viewBox="0 0 39 39"><title>bouton_i</title><g id="Calque_2" data-name="Calque 2"><g id="Calque_1-2" data-name="Calque 1"><path d="M18,18.25l-1.59-.43v-1.5l4.09-.49h.05l.62.45V27l1.5.18v1.34H16.39V27.22L18,27Zm-.09-4.63a1.63,1.63,0,0,1-.47-1.21A2,2,0,0,1,17.93,11a1.92,1.92,0,0,1,1.44-.56,1.82,1.82,0,0,1,1.36.48,1.66,1.66,0,0,1,.47,1.2,1.92,1.92,0,0,1-.54,1.43,2,2,0,0,1-1.5.54h0A1.73,1.73,0,0,1,17.87,13.62Z"/><path d="M19.5,39A19.5,19.5,0,1,1,39,19.5,19.53,19.53,0,0,1,19.5,39Zm0-35A15.5,15.5,0,1,0,35,19.5,15.51,15.51,0,0,0,19.5,4Z"/></g></g></svg>