<?xml version="1.0" encoding="UTF-8"?>
<svg xmlns="http://www.w3.org/2000/svg" xmlns:svg="http://www.w3.org/2000/svg"
  xmlns:sodipodi="http://sodipodi.sourceforge.net/DTD/sodipodi-0.dtd"
  xmlns:rdf="http://www.w3.org/1999/02/22-rdf-syntax-ns#"
  xmlns:inkscape="http://www.inkscape.org/namespaces/inkscape"
  xmlns:dc="http://purl.org/dc/elements/1.1/" xmlns:cc="http://creativecommons.org/ns#"
  version="1.1" viewBox="0 0 500 548.8">
  <defs>
    <style>
      .cls-1 {
      fill: #fff;
      fill-rule: evenodd;
      }
    </style>
  </defs>
  <!-- Generator: Adobe Illustrator 28.7.1, SVG Export Plug-In . SVG Version: 1.2.0 Build 142)  -->
  <g>
    <g id="svg1506">
      <sodipodi:namedview id="namedview1508" bordercolor="#666666" borderopacity="1"
        fit-margin-bottom="0" fit-margin-left="0" fit-margin-right="0" fit-margin-top="0"
        gridtolerance="10" guidetolerance="10" inkscape:current-layer="svg1506"
        inkscape:cx="768.39232" inkscape:cy="255.62473" inkscape:document-rotation="0"
        inkscape:pageopacity="0" inkscape:pageshadow="2" inkscape:window-height="986"
        inkscape:window-maximized="1" inkscape:window-width="1920" inkscape:window-x="-11"
        inkscape:window-y="-11" inkscape:zoom="0.67841748" objecttolerance="10" pagecolor="#ffffff"
        showgrid="false" />
      <path id="Combined-Shape" class="cls-1"
        d="M250,15.6c-75.6,0-154.1,6.4-233.7,20.1-1.2,31.8-2.5,81-.3,122.7,5.1,93,25.6,165.2,64.7,227.3,38.9,61.8,99.3,115,169.3,146.6,70-31.6,130.3-84.7,169.3-146.6,39.1-62,59.6-134.2,64.7-227.3,2.3-41.7.9-90.9-.3-122.7-79.6-13.7-158.1-20.1-233.7-20.1ZM250,24.6c74.5,0,150.2,6.3,225,18.8,1.6,47.2,1.6,84.7,0,114.6-5,91.5-25.1,162.3-63.3,223-38.2,60.7-95.5,110.8-161.7,141.5-66.2-30.7-123.5-80.8-161.7-141.5-38.2-60.7-58.3-131.5-63.3-223-1.6-29.9-1.6-67.4,0-114.6,74.8-12.5,150.5-18.8,225-18.8Z" />
      <path id="path75" class="cls-1"
        d="M93.7,67.3c-.7,0-1.5,0-2.3.1-11.1,1.2-22.1,2.4-33.2,3.8v32.6c1.9-.2,3.8-.5,5.7-.7v-10.1c9.1-1.1,18.3-2.1,27.4-3.1,6.6-.7,10.3-3.4,10.3-10.3v-3.7c0-5.8-2.8-8.5-8-8.7ZM93,72.5c1.5-.2,3,1,3,2.5v6.6c0,1.4-1.5,2.8-3,2.9-9.7,1-19.4,2.1-29.1,3.3v-12c9.7-1.2,19.4-2.3,29.1-3.3Z" />
      <path id="path89" class="cls-1"
        d="M239.4,59.2c10.3,0,20.7,0,31,.1h0v5.3c-11.1-.1-22.1-.2-33.2,0-1.5,0-3,1.3-3,2.8h0v16.3c0,1.5,1.5,3,3,3,9.9,0,19.8,0,29.8,0h0v-8.8c-5.8,0-11.5,0-17.3,0h0v-5.3c7.6,0,15.3,0,22.9.2h0v19.3c-10.7-.2-21.5-.2-32.2-.1-7.9,0-11.8-1.3-11.8-8.9h0v-14.2c0-7.1,3.6-9.4,10.8-9.5h0Z" />
      <path id="path81" class="cls-1"
        d="M351.5,62.6c-6.2,0-9,2-9,8.4v14.6c0,7.7,4,9.3,11.8,9.8,7.2.5,14.4,1,21.6,1.6,7.8.6,11.8-.7,11.8-8v-14.6c0-7.5-4.7-9.5-11.8-10-7.2-.6-14.4-1.1-21.6-1.6-1,0-2-.1-2.9-.1ZM351.1,67.8c9.3.6,18.7,1.3,28,2.1,1.5.1,3,1.5,3,3.2v16.1c0,1.5-1.5,2.9-3,2.7-9.3-.8-18.7-1.5-28-2.1-1.7-.1-3-1.7-3-3.2v-16.1c0-1.7,1.3-2.9,3-2.8Z" />
      <path id="path85" class="cls-1"
        d="M214.5,59.6v23.6c0,7.5-3.9,9.1-11.8,9.3-6.9.2-13.8.5-20.7.8-7.3.3-11.8-1.1-11.8-8.5h0v-23.6h0l5.6-.3v24.6c0,1.5,1.3,2.7,3,2.6,9-.4,18.1-.8,27.1-1,1.7,0,2.9-1.4,2.9-2.9h0v-24.6c1.9,0,3.8-.1,5.8-.1h0Z" />
      <path id="path83" class="cls-1"
        d="M286.7,59.6c13.9.3,27.8.9,41.6,1.6h0v5.3c-12-.6-24-1.1-36-1.4h0v8c10.7.3,21.4.7,32,1.2h0v5.3c-10.7-.5-21.3-.9-32-1.2h0v8.8c12,.3,24,.8,36,1.4h0v5.3c-13.9-.7-27.8-1.2-41.6-1.6h0v-32.6Z" />
      <path id="path79" class="cls-1"
        d="M156,62.1v5.3c-12,.7-24,1.6-36,2.6h0v8c10.7-.9,21.3-1.7,32-2.4h0v5.3c-10.7.7-21.3,1.5-32,2.4h0v8.8c12-1,24-1.9,36-2.6h0v5.3c-13.9.9-27.7,1.9-41.6,3.1h0v-32.6c13.9-1.2,27.7-2.3,41.6-3.1Z" />
      <path id="path77" class="cls-1"
        d="M398.2,66.3c14.6,1.4,29.1,3,43.7,4.9h0v5.3c-6.3-.8-12.6-1.5-18.9-2.3h0v27.4c-1.9-.2-3.8-.4-5.8-.6h0v-27.4c-6.3-.7-12.7-1.4-19-2h0v-5.3Z" />
      <path id="path73" class="cls-1"
        d="M205.3,128.8c26.8-2.3,63-3,97.6-.4,2,.1,3.9.6,5.7,1.4,11.3,4.8,31.4,15.2,53.8,27.9,1,.6,1.9,1.2,2.8,2,5.9,5.2,20.9,20.5,20.9,20.5h0l-4.7-.9c-.7-.1-1.3-.4-1.8-.8-9.5-6.3-23.3-14.6-34.9-20.4-1.4-.7-2.9-1.1-4.4-1.3-5.6-.6-13.3-1.1-18.2-1.3-2.5-.1-4.1-.5-6.5-1.7-4.6-2.3-15.7-7.4-21.3-9.5-2.4-.9-3.6-1.1-5.9-1.1-9.5.1-31.2.8-42.3,1.5-.4,0-.8,0-1.1,0h0l-5.3-.8c15-2.6,52-5.9,67.3-6.7h0l-6.2-2.1c-1.2-.4-2.5-.6-3.7-.6-3.3,0-10.7-.2-20.3-.2h-3.3c-14.6,0-33.3.4-50.5,1.7-1.5.1-3,.5-4.4,1.1-7,3.1-24,12.3-41,21.7l-3.8,2.1c-4.4,2.5-8.8,4.9-12.9,7.2,0,0,2.1-2.7,2.5-3.3.4-.5.5-.5,1-.9.7-.4,3-2,5.4-3.5l1.7-1.2c1.4-.9,2.7-1.8,3.4-2.3.4-.2.6-.4,1-.7,5.1-3.9,13.2-10.7,18.1-14.9,1.1-1,2-2.1,2.8-3.3,1.6-2.5,3.3-5.3,4.3-6.8.9-1.3,2.4-2.2,4.3-2.4h0Z" />
      <path id="path71" class="cls-1"
        d="M218.3,154.6c.6,0,1,.7.7,1.2h0l-12.9,22.2c-.7,1.3-1.9,2.3-3.4,2.7h0l-24.3,7.6c-2.8.9-5.2,1.3-8.1,1.5-5.4.4-21.4.9-21.4.9h0l.4-.8c.2-.4.5-.6.8-.8h0l7.6-3.2c.6-.2,1.1-.6,1.4-1.1h0l11.7-14.3c.6-.8,1.4-1.5,2.3-2,7.7-4,21.4-10.1,31-13.3.9-.3,2.1-.5,3.1-.5h0l11.1-.2Z" />
      <path id="path69" class="cls-1"
        d="M157.9,194.5c.5,0,1,.2,1.2.7.7,1.5.5,3.3-.2,4.8-.3.6-1,1.2-1.7,1.3h0l-5.3,1.2c-.3,0-.6-.2-.6-.5h0l.5-6.2c0-.4.4-.8.8-.8h0l5.2-.4Z" />
      <path id="path67" class="cls-1"
        d="M275.5,168.2c.8-.1,1.6,0,2.3.3h0l5.5,2.6c.5.3.9.8,1.1,1.4.8,3.2,1.7,7.3,2.3,10.9.3,1.5,0,3-.8,4.3-2.3,4-7,11.1-9.6,15-.6.9-.7,1.9-.5,2.9,1.2,6.6,6.2,29.6,6.2,29.6h0l-3.1-2.8c-.6-.6-1-1.2-1.3-2-2.2-6.5-6.4-20.1-8.3-26.7-.3-1.1,0-2.3.6-3.1,3.3-4,8-10.3,10.8-14.3.8-1.1,1-2.4.6-3.3-.6-1.3-1.7-3.3-2.8-5.1-.3-.5-.7-.9-1.3-1.1h0l-3.8-1.2c-.7-.2-1.4-.2-2,0-8.2,3-19.2,7.2-25.9,10-1,.4-1.4.4-2.6.3-2-.3-7.6-1.3-10.4-1.8-.5,0-.8-.7-.5-1.1h0l3.3-5.7c.4-.8,1.2-1.3,2.1-1.5,10.6-2.4,24.7-5.2,38.1-7.5h0Z" />
      <path id="path65" class="cls-1"
        d="M159.9,174.2l-2.2,2.7c-.1.1-.2.2-.4.4-1.9,1.4-10,7.6-12.2,9.3-.6.5-.9.9-1,1.7-.5,2.7-1.3,7.9-1.5,10.8,0,.8-.4,1.3-1.3,1.6-3.7,1.5-8.2,3.1-11.8,4.5-.8.3-1,.4-1.4.8-.4.3-5.1,4.5-5.1,4.5,0,0,10.3-2.5,14.1-3.4.9-.2,1.3-.1,2.1.2.8.4,2.1.9,2.8,1.1,1.1.4,1.6.4,2.8.1,4.3-1,11.5-2.7,15.3-3.6,2-.5,3.1-1.1,4.8-2.2,1.8-1.3,6.5-4.7,6.5-4.7,0,0,0,.6-.1,1,0,.3-.2.5-.3.7-.9,1.1-2.6,3-3.4,3.8-1.9,1.9-3,2.6-5.4,3.6-10.9,4.5-29.5,11.5-43.4,16.4-.9.3-1.3.6-2,1.3-.7.7-1.7,1.8-1.7,1.8,0,0,11.4.8,14.8,1.2,1.1.1,1.9.5,2.8,1.2,2.9,2.4,12.3,12.1,15.1,15.5,0,0-26.8,4.5-39.3,7.5-1.5.4-2.3,1.4-2.6,2.6-1,3.6-3.5,15.2-3.5,15.2,0,0-.9-.3-2.1-1-.8-.5-1.2-.9-2.2-1.8-2.9-3.1-7.8-9-10.1-12.5-.7-1-1-2.3-.1-3.3,2.5-3.1,7.6-8.7,10.4-11.6.3-.3.7-.9,1.1-1.6.9-1.9,2.2-6.6,2.6-8.3v-.6h.2c0,0,0,0,0,0l-.5.3c-.7.4-1.8,1.1-2.3,1.4-.7.5-.9.7-1.2,1.3-.5.9-1.2,2.4-1.9,3.5-.2.3-.7.9-1,1.1-3.6,2.7-7.5,5.6-10.3,7.6-.2.1-.4,0-.6,0-.4-.4-1.9-2.1-2.1-2.5-.2-.3-.3-.6-.3-1.1,0-.7,0-2,.1-2.9,0-1.1.4-1.6,1.7-3,1.5-1.5,3.1-3.2,4.8-4.8,4.2-3.5,14.8-12.1,33.8-25.6.4-.3.7-.6.9-.9,2-2.7,7.7-10,9-11.7.2-.2.4-.5.7-.7,2.2-1.8,3.3-2.5,5.6-3.9,5.3-3.3,15.5-9.4,21.2-12.7h0Z" />
      <path id="path63" class="cls-1" d="M117.1,265.4l-2.3,16.1-8-9.3c1.5-3.1,5.7-6.1,10.3-6.8Z" />
      <path id="path61" class="cls-1"
        d="M169.5,274c-4,6.5-8.7,13.4-12.3,17.7-.5.6-1.1,1-1.8,1.3-3.9,1.5-10.5,3.7-15.3,5.1h0l29.4-24.1Z" />
      <path id="path59" class="cls-1"
        d="M338.7,169.4c2.1-.8,4.4-.7,6.5.1,16,6.7,42.9,22.5,57.9,33.6,1.4,1.1,2,1.8,2.4,3.5,3.5,15.9,4.8,40.6,2.6,61.3-.2,1.5-.5,2.4-1.2,4-9.5,19.3-20.1,37.5-31.4,51.6h0v-.2c.2-1.5,1-9.9,1-14.5,0-.5.2-1,.7-1.3,2.1-1.6,4.9-3.9,6.6-5.3.8-.7,1.2-1.2,1.6-1.9,4.6-7.4,12.8-22.8,16-32.1.8-2.3,1.1-4.7.9-7.1-1.1-12.9-3.1-30.9-6.1-42.6-.5-2-1.8-3.7-3.7-4.6-2.6-1.3-7.8-3.7-19.4-8.4-1.6-.6-3.1-1.5-4.5-2.7-7.7-6.4-19.7-16.1-27.1-21.6-2.2-1.6-5-2.2-7.6-1.6-5.4,1.2-12.3,2.9-16.2,4-1.3.4-1.8.4-3.2.2-.7,0-1.6-.2-2.6-.3h-1.5c-1.7-.3-3.3-.4-3.9-.4h-.3c12.7-6,24.9-11.1,32.5-13.9h0Z" />
      <path id="path57" class="cls-1"
        d="M149.9,251.1c1.3-.4,2.6-.5,3.9-.1,5.8,1.4,18,4.4,27.2,6.7,1.3.3,2.9,1.5,3.6,2.7h0l2,3.3c.7,1.2.8,2.6.1,3.8-1.7,3.2-4.1,7.6-6.6,12.2l-1.9,3.4c-3.5,6.2-7,12.3-9,15.4-1.3,2.1-2,3-4.4,3.8-9.1,3.2-20.4,7-27.1,9.2-1.4.4-1.8,1.3-1.6,2.8.5,2.8,2,12.1,2.6,14.9.2,1,1,1.8,2.5,1.5,4-.8,14.5-3.3,14.5-3.3,0,0-3.1,2.9-5,4.6-.3.3-.7.6-1.2.7-2.9,1-9.9,2.9-12.1,3.4-1.7.4-2.8-.3-3.2-2.2,0,0-3-12.7-4.1-17-.2-.7-.3-1.2-.5-1.9-.8-2.5-2.8-7.4-3.9-10-.1-.3-.2-.6-.2-.9,0-2.9.6-9.5.6-9.5,0,0,6.5,6,9.6,8.2.7.5,1.1.6,2,.4,4.3-1.1,14.2-4.4,19.6-6.4,1.2-.5,2.3-1.2,3.2-2.3,5.6-6.7,12.6-17.2,16.7-25.2.6-1.1.7-2.3.3-3.5h0l-.9-2.9c-.3-.8-1.1-1.8-2-2.1-9.5-3.6-17.1-6.3-25.9-9.3h0l1.1-.3Z" />
      <path id="path55" class="cls-1"
        d="M321,218.6l3.3,1.4c1,.4,1.9,1,2.6,1.8,20.2,21.1,36.4,42.9,39.7,48.7.6,1.1,1.1,2.2,1.2,3.5,3.6,30.7.5,63.3-6.9,91.6-.7,2.6-1.4,3.9-3.9,5.7-7.9,5.9-19.8,15.4-31.5,25.1l-3.7,3.1c-14.2,11.7-27.7,23.2-33.4,28.4-1.4,1.3-2.7,2.8-3.7,4.5-2.7,4.3-6.8,11.8-8.8,15.5l-.6,1c-.4.7-.6,1.2-.6,1.2-2.7-5.8-8.5-20-10.5-25.7-.7-1.9-.8-2.8,0-5.3,3.3-11.9,18.6-46.4,21.6-52.6h0v2.6c0,.4,0,.7-.2,1.1-1.3,4.1-9.6,31.3-11.3,43.1-.4,2.6-.3,3.3,0,5.9.7,5.5,4,15.6,4,15.6,0,0,2-4.1,3.8-6.8.9-1.4,1.4-2,2.9-3.4,7.4-7.3,20-18.6,33.1-29.9l4.6-4c10.1-8.6,20.2-17,28.1-23.5,2.1-1.7,2.8-2.8,3.3-6,2.3-15.6,2.9-43.6,1.6-64-.3-3.9-1.5-7.6-3.7-10.8-5-7.4-11-14.3-20-23.3-1.3-1.3-2.2-2.9-2.5-4.7-2.6-14-8.5-39.7-8.5-39.7h0Z" />
      <path id="path53" class="cls-1"
        d="M214.5,228.9s1.8,5.9,3.6,12.4l.6,2.3c1.1,4.2,2.1,8.4,2.5,11,.3,2.5.3,3.2-.6,5.6-2.2,5.8-6.2,15.1-10.5,24.7l-1.9,4.1c-5.3,11.6-10.6,22.7-13.2,27.6-1.3,2.4-2.5,3.9-4.9,6.4-5.5,5.6-16,16.1-22.4,21.9-2.4,2.1-3,4-3.5,6.7-.8,4.4-1.5,12-1.8,15.9-.2,3.4.4,5.1,2.3,8.5,11.4,20.3,49.6,67.2,60.5,77,.8.7,1.4,1.2,3,2.3,1.6,1.1,6.8,4.4,6.8,4.4.2.1.4.3.5.6h0l1.9,3.3s-.2,0-.5-.2l-.8-.4c-.7-.3-1.5-.8-2.5-1.3l-2.4-1.2c-3.7-1.9-8.1-4.1-10.5-5.3-1-.5-1.9-1.1-2.7-1.8-12.7-10.6-51.8-56.1-63.3-75.1-2.9-4.8-3.2-6.3-2.8-10.8.7-8.4,1.8-18.9,2.8-23.5.6-2.8,1.2-4.4,3.3-6.9,7.2-8.2,15.9-19.1,24.5-30.3l3-4c12.9-17.1,24.9-34.3,29.3-43,1-2,1.1-2.7,1.1-4.6,0-5.4-1.7-16.1-2.1-18.7,0-.4,0-.8,0-1.3h0l.5-6.2Z" />
      <path id="path51" class="cls-1"
        d="M249.4,296.3s1.5,8.7,1.9,11.2c.3,1.4.3,1.8,0,3.2-1.2,4.5-6.6,28.3-11,52.7l-.7,3.8c-1.8,10.3-3.3,20.4-4.2,29.2-.5,5-.3,6.1,1,10.5,3.7,12.4,17.5,44.9,20.1,50.8.3.7.5,1.3.6,2h0l1,7.6c-4.4-6.6-28.3-50.5-37.7-74.8-1.1-2.9-1.3-4.3,0-9.5,6.5-27.9,24.2-75.3,29.2-86.8h0Z" />
    </g>
  </g>
</svg>