<svg width="200" height="219" viewBox="0 0 200 219" fill="none" xmlns="http://www.w3.org/2000/svg">
<path fill-rule="evenodd" clip-rule="evenodd" d="M100.002 0C70.1259 0 39.7465 2.54469 9.71528 7.55518L1.17825 8.98265L0.885767 17.6311C0.232547 36.5784 0.229027 51.6796 0.885767 63.7838C2.94794 101.724 11.3782 131.271 27.4161 156.786C43.4927 182.375 67.6856 203.61 95.5382 216.566L100.002 218.634L104.458 216.566C132.307 203.61 156.507 182.375 172.581 156.786C188.618 131.271 197.045 101.724 199.111 63.7838C199.771 51.6831 199.768 36.5819 199.111 17.6311L198.811 8.98265L190.274 7.55518C160.247 2.54469 129.878 0 100.002 0Z" fill="black"/>
<path fill-rule="evenodd" clip-rule="evenodd" d="M99.9979 6.23438C69.8804 6.23438 38.6182 8.79698 6.88842 14.2539C6.41472 26.9286 5.87478 46.52 6.78182 63.1449C8.80197 100.211 16.9907 128.981 32.5529 153.687C48.0683 178.32 72.096 199.501 99.9978 212.08C127.9 199.501 151.925 178.32 167.441 153.687C183.005 128.981 191.191 100.211 193.213 63.1449C194.116 46.52 193.579 26.9286 193.105 14.2539C161.375 8.79698 130.115 6.23438 99.9979 6.23438ZM99.9979 9.80524C129.686 9.80524 159.831 12.321 189.635 17.2862C190.289 36.0897 190.288 51.0507 189.639 62.952C187.652 99.3869 179.638 127.617 164.411 151.788C149.187 175.957 126.356 195.922 99.998 208.154C73.6382 195.922 50.809 175.957 35.5846 151.788C20.3581 127.617 12.3415 99.3869 10.3574 62.952C9.70738 51.0507 9.70704 36.0897 10.3614 17.2862C40.1644 12.321 70.3074 9.80524 99.9979 9.80524Z" fill="white"/>
<path fill-rule="evenodd" clip-rule="evenodd" d="M37.7083 26.8129C37.4159 26.8058 37.1045 26.8193 36.7752 26.8533C32.3654 27.3132 27.9618 27.8194 23.5625 28.3746V41.3671C24.3251 41.2697 25.09 41.1764 25.8526 41.0831V37.0632C29.4893 36.6182 33.1322 36.2069 36.7753 35.8276C39.4093 35.5542 40.8815 34.4548 40.8815 31.7338V30.2631C40.8815 27.936 39.7546 26.863 37.7083 26.8129ZM37.4555 28.8788C38.0481 28.8174 38.6429 29.2669 38.6429 29.8624V32.494C38.6429 33.0599 38.0481 33.6008 37.4555 33.6644C33.5851 34.0607 29.7167 34.4973 25.8527 34.9677V30.1845C29.7167 29.712 33.5851 29.2772 37.4555 28.8788Z" fill="white"/>
<path fill-rule="evenodd" clip-rule="evenodd" d="M95.7716 23.5907C99.8948 23.5611 104.018 23.5757 108.139 23.6309V25.7247C103.733 25.6675 99.3255 25.6547 94.9177 25.6908C94.3208 25.6972 93.7238 26.2121 93.7238 26.8076V33.3177C93.7238 33.9132 94.3208 34.5023 94.9177 34.496C98.8709 34.4621 102.822 34.4685 106.775 34.5131V31.0016C104.481 30.9763 102.187 30.9634 99.8948 30.9655V28.8697C102.937 28.8697 105.979 28.8929 109.02 28.9375V36.6364C104.746 36.5729 100.473 36.5559 96.1986 36.5814C93.0696 36.6024 91.4785 36.0643 91.4785 33.0339V27.3714C91.4785 24.5423 92.8997 23.6119 95.7716 23.5907Z" fill="white"/>
<path fill-rule="evenodd" clip-rule="evenodd" d="M140.427 24.9493C137.962 24.9564 136.854 25.734 136.854 28.2836V34.0854C136.854 37.173 138.444 37.7756 141.567 37.9854C144.434 38.1803 147.298 38.396 150.164 38.6312C153.254 38.8855 154.871 38.3598 154.871 35.4417V29.6399C154.871 26.6667 152.999 25.8718 150.164 25.6387C147.298 25.4014 144.434 25.1876 141.567 24.9905C141.159 24.963 140.779 24.9483 140.427 24.9493ZM140.291 27.0012C144.01 27.2449 147.725 27.5249 151.44 27.8385C152.035 27.8894 152.63 28.4505 152.63 29.1286V35.5568C152.63 36.1502 152.035 36.6947 151.44 36.6439C147.725 36.3303 144.01 36.0501 140.291 35.8043C139.609 35.7576 139.096 35.133 139.096 34.5375V28.1116C139.096 27.4314 139.609 26.9546 140.291 27.0012Z" fill="white"/>
<path fill-rule="evenodd" clip-rule="evenodd" d="M85.8525 23.7402V33.1388C85.8525 36.112 84.287 36.7647 81.1325 36.8622C78.3858 36.9469 75.6392 37.0486 72.8926 37.1716C69.9654 37.3029 68.1768 36.7477 68.1768 33.8042V24.4057L70.42 24.2913V34.0861C70.42 34.6816 70.9319 35.1669 71.6116 35.1351C75.2122 34.9677 78.8107 34.832 82.4113 34.7282C83.0953 34.709 83.5499 34.1878 83.5499 33.5923V23.7975C84.3167 23.7765 85.0836 23.7572 85.8525 23.7402Z" fill="white"/>
<path fill-rule="evenodd" clip-rule="evenodd" d="M114.636 23.7515C120.167 23.8828 125.697 24.0905 131.226 24.3745V26.4682C126.446 26.2245 121.665 26.0359 116.881 25.9045V29.1024C121.136 29.2211 125.389 29.3821 129.639 29.5877V31.6835C125.389 31.478 121.136 31.3148 116.881 31.1982V34.7076C121.665 34.839 126.446 35.0276 131.226 35.2734V37.3672C125.697 37.0853 120.167 36.8776 114.636 36.7441V23.7515Z" fill="white"/>
<path fill-rule="evenodd" clip-rule="evenodd" d="M62.5491 24.7246V26.8184C57.7717 27.1129 52.9965 27.4626 48.2254 27.8673V31.0673C52.4696 30.7049 56.716 30.3892 60.9645 30.1179V32.2138C56.716 32.485 52.4696 32.8008 48.2254 33.161V36.6725C52.9965 36.2656 57.7717 35.916 62.5491 35.6235V37.7173C57.024 38.0563 51.5031 38.4717 45.9844 38.9612V25.9664C51.5031 25.4769 57.024 25.0637 62.5491 24.7246Z" fill="white"/>
<path fill-rule="evenodd" clip-rule="evenodd" d="M159.027 26.4321C164.835 26.9958 170.638 27.6443 176.431 28.3733V30.4692C173.927 30.1534 171.418 29.8525 168.907 29.5685V40.4674C168.145 40.3805 167.382 40.2958 166.615 40.211V29.3121C164.089 29.0345 161.557 28.7738 159.027 28.528V26.4321Z" fill="white"/>
<path fill-rule="evenodd" clip-rule="evenodd" d="M82.1857 51.2956C92.8493 50.361 107.279 50.1067 121.063 51.1472C121.847 51.2066 122.61 51.3909 123.334 51.6961C127.85 53.5906 135.863 57.7357 144.772 62.8196C145.165 63.0443 145.535 63.307 145.875 63.6059C148.235 65.6805 154.214 71.7837 154.214 71.7837L152.349 71.415C152.088 71.3641 151.844 71.2624 151.623 71.1141C147.85 68.5859 142.342 65.2948 137.726 62.9743C137.178 62.7009 136.585 62.5251 135.976 62.4615C133.73 62.222 130.695 62.0122 128.709 61.9317C127.729 61.8915 127.062 61.7283 126.104 61.243C124.273 60.3169 119.838 58.31 117.629 57.4687C116.683 57.1085 116.201 57.0237 115.275 57.0385C111.479 57.0936 102.831 57.3691 98.4149 57.6425C98.2619 57.6511 98.1154 57.6445 97.9666 57.621L95.8615 57.2926C101.831 56.2669 116.586 54.9551 122.693 54.6351L120.207 53.8066C119.727 53.6477 119.228 53.5629 118.72 53.5502C117.395 53.5187 114.446 53.4599 110.619 53.4547L109.312 53.4551C103.515 53.4662 96.0572 53.6082 89.1787 54.1245C88.5775 54.169 87.9912 54.3131 87.4389 54.5568C84.6604 55.7742 77.885 59.439 71.0899 63.2032L69.5812 64.0404C67.8244 65.0168 66.0861 65.9882 64.4355 66.9137C64.4355 66.9137 65.2831 65.8265 65.4467 65.6146C65.5911 65.4302 65.6357 65.3964 65.8312 65.2692C66.1043 65.0906 67.0365 64.4781 67.9763 63.8565L68.6725 63.3952C69.2368 63.0205 69.7405 62.6838 70.0244 62.4889C70.1646 62.3935 70.2537 62.3257 70.4301 62.1943C72.4758 60.6558 75.7046 57.9432 77.6292 56.2627C78.0646 55.8834 78.4343 55.4426 78.7381 54.951C79.3604 53.9465 80.0402 52.8572 80.4587 52.2532C80.8155 51.7298 81.4252 51.3634 82.1857 51.2956Z" fill="white"/>
<path fill-rule="evenodd" clip-rule="evenodd" d="M87.352 61.5747C87.5962 61.5727 87.7492 61.8354 87.6283 62.0452L82.4749 70.897C82.1879 71.4183 81.708 71.8061 81.1387 71.9777L71.4756 74.9933C70.3539 75.3324 69.4066 75.5146 68.2382 75.6037C66.0949 75.7647 59.7285 75.9639 59.7285 75.9639L59.8686 75.663C59.9345 75.521 60.0512 75.4087 60.1955 75.3472L63.2077 74.0715C63.433 73.9761 63.6304 73.8299 63.7812 73.6413L68.4334 67.928C68.6819 67.6228 69.0069 67.3304 69.3531 67.1481C72.4269 65.5354 77.8926 63.1132 81.7205 61.8375C82.0816 61.7167 82.568 61.6404 82.9482 61.6362L87.352 61.5747Z" fill="white"/>
<path fill-rule="evenodd" clip-rule="evenodd" d="M63.3018 77.4792C63.5036 77.4624 63.6948 77.5746 63.7734 77.7589C64.039 78.3756 63.9667 79.0643 63.7096 79.6535C63.6098 79.8929 63.3017 80.126 63.049 80.1811L60.9353 80.6495C60.8077 80.677 60.6911 80.5753 60.6997 80.446L60.8972 77.9708C60.9115 77.8034 61.0437 77.6699 61.2116 77.6572L63.3018 77.4792Z" fill="white"/>
<path fill-rule="evenodd" clip-rule="evenodd" d="M110.174 67.0269C110.49 66.9718 110.815 67.0162 111.106 67.1541L113.313 68.2073C113.53 68.3112 113.689 68.5083 113.747 68.7456C114.046 70.0044 114.414 71.6722 114.66 73.0899C114.76 73.679 114.649 74.2809 114.35 74.8001C113.436 76.3831 111.561 79.2313 110.511 80.7613C110.278 81.1046 110.25 81.52 110.322 81.929C110.798 84.5525 112.782 93.7137 112.782 93.7137L111.533 92.5799C111.285 92.351 111.121 92.1095 111.015 91.7937C110.127 89.202 108.466 83.7875 107.701 81.1534C107.578 80.7189 107.672 80.2548 107.958 79.9094C109.26 78.3327 111.157 75.8109 112.266 74.2131C112.576 73.7638 112.678 73.2679 112.495 72.8971C112.24 72.3757 111.811 71.5832 111.399 70.8648C111.289 70.6656 111.104 70.5172 110.885 70.4452L109.388 69.9662C109.126 69.8835 108.846 69.8878 108.587 69.9813C105.324 71.1616 100.935 72.8633 98.2502 73.9738C97.8572 74.1369 97.6958 74.1497 97.2199 74.0776C96.4425 73.9632 94.178 73.5584 93.0671 73.3507C92.8674 73.3126 92.7676 73.0879 92.8696 72.9121L94.1866 70.6361C94.3652 70.3288 94.6603 70.1105 95.0086 70.0321C99.2444 69.07 104.846 67.9636 110.174 67.0269Z" fill="white"/>
<path fill-rule="evenodd" clip-rule="evenodd" d="M64.1198 69.4119L63.2532 70.4757C63.2043 70.5224 63.1576 70.5668 63.1088 70.6156C62.3462 71.1771 59.1365 73.629 58.2676 74.3156C58.0213 74.5106 57.9236 74.6801 57.8662 74.9874C57.6708 76.0724 57.3457 78.1344 57.2501 79.2766C57.2215 79.6115 57.0783 79.7767 56.7361 79.9145C55.247 80.5185 53.4817 81.1542 52.0542 81.7243C51.7483 81.845 51.6634 81.8917 51.4828 82.0294C51.3402 82.1396 49.4436 83.8286 49.4436 83.8286C49.4436 83.8286 53.5667 82.8157 55.0792 82.4745C55.4403 82.3939 55.5954 82.4151 55.9289 82.572C56.2412 82.7161 56.7615 82.9217 57.0356 83.0212C57.4562 83.1759 57.6792 83.1696 58.1444 83.0679C59.8481 82.6886 62.7136 82.0104 64.2389 81.6141C65.0312 81.4085 65.4645 81.1945 66.1358 80.7262C66.8666 80.2197 68.7168 78.8359 68.7168 78.8359C68.7168 78.8359 68.681 79.0796 68.6572 79.2152C68.6357 79.3318 68.5955 79.3975 68.5192 79.4886C68.1432 79.94 67.4847 80.6754 67.1576 81.0123C66.4077 81.7858 65.9595 82.0613 65.0184 82.4533C60.685 84.2546 53.2799 87.0519 47.725 88.9698C47.3618 89.097 47.2046 89.2008 46.9348 89.4763C46.6418 89.773 46.2508 90.2053 46.2508 90.2053C46.2508 90.2053 50.7797 90.5337 52.1626 90.6927C52.6108 90.7435 52.9315 90.8897 53.2736 91.1843C54.41 92.1592 58.172 96.0224 59.2979 97.3638C59.2979 97.3638 48.6023 99.1376 43.6465 100.365C43.0347 100.515 42.7288 100.903 42.5907 101.392C42.1808 102.829 41.2142 107.449 41.2142 107.449C41.2142 107.449 40.8702 107.339 40.3901 107.063C40.0606 106.875 39.893 106.718 39.5319 106.336C38.3593 105.101 36.4326 102.736 35.5064 101.365C35.2344 100.96 35.1198 100.445 35.4597 100.032C36.4645 98.7985 38.4825 96.548 39.5956 95.3909C39.7147 95.2659 39.8655 95.0476 40.0247 94.7339C40.3993 93.9918 40.893 92.1124 41.065 91.4336L41.1199 91.2142L41.1269 91.1842C41.1269 91.1842 41.1162 91.1906 41.0983 91.2028L40.8951 91.3303C40.6195 91.5031 40.1744 91.7824 39.9832 91.9025C39.6966 92.0847 39.6178 92.1631 39.4989 92.4132C39.3181 92.7904 39.0018 93.3859 38.7617 93.7991C38.6833 93.9347 38.473 94.1445 38.3603 94.2314C36.9392 95.3143 35.3693 96.4778 34.252 97.2618C34.1753 97.3148 34.0777 97.2915 34.0121 97.2279C33.8695 97.0859 33.2728 96.4099 33.1666 96.2509C33.0775 96.1174 33.0372 95.9924 33.0372 95.8313C33.0352 95.5495 33.0622 95.0536 33.0903 94.6849C33.1225 94.2483 33.2497 94.0406 33.7828 93.4896C34.3797 92.873 35.0297 92.2245 35.7137 91.5591C37.3898 90.152 41.6213 86.7274 49.1772 81.3489C49.3198 81.2472 49.4492 81.1285 49.5531 80.9865C50.3476 79.9185 52.6015 77.0025 53.158 76.3095C53.2364 76.212 53.3238 76.1209 53.4236 76.0425C54.3137 75.3411 54.7534 75.038 55.6562 74.4701C57.7613 73.1477 61.8377 70.7361 64.1212 69.4116L64.1198 69.4119Z" fill="white"/>
<path fill-rule="evenodd" clip-rule="evenodd" d="M47.0367 105.753L46.1041 112.172L42.9326 108.46C43.5104 107.211 45.1992 106.033 47.0367 105.753Z" fill="white"/>
<path fill-rule="evenodd" clip-rule="evenodd" d="M67.9244 109.159C66.344 111.753 64.4555 114.507 63.028 116.228C62.8412 116.453 62.5926 116.627 62.3101 116.733C60.7487 117.315 58.1465 118.193 56.2305 118.775L67.9244 109.159Z" fill="white"/>
<path fill-rule="evenodd" clip-rule="evenodd" d="M135.349 67.4841C136.186 67.1768 137.103 67.198 137.925 67.5434C144.302 70.2136 155.026 76.4948 160.986 80.9196C161.562 81.3477 161.791 81.6423 161.942 82.3331C163.342 88.6822 163.873 98.4961 162.991 106.759C162.928 107.352 162.809 107.708 162.499 108.342C158.722 116.045 154.471 123.295 149.997 128.887L150.008 128.796C150.067 128.2 150.387 124.842 150.405 123.025C150.407 122.82 150.503 122.631 150.666 122.506C151.497 121.862 152.637 120.947 153.283 120.389C153.598 120.118 153.772 119.915 153.935 119.652C155.758 116.715 159.017 110.565 160.329 106.865C160.65 105.962 160.778 105.006 160.699 104.05C160.278 98.8944 159.467 91.7507 158.258 87.0885C158.052 86.2938 157.525 85.622 156.792 85.247C155.75 84.7129 153.704 83.7826 149.045 81.9198C148.4 81.6613 147.796 81.3032 147.265 80.8581C144.211 78.2982 139.435 74.4604 136.464 72.2522C135.595 71.6058 134.486 71.3706 133.428 71.6101C131.263 72.0996 128.508 72.782 126.958 73.2016C126.431 73.3436 126.223 73.3563 125.679 73.2927C125.396 73.2598 125.03 73.2241 124.645 73.1893L124.062 73.1382C123.385 73.0805 122.75 73.0316 122.501 73.0128L122.391 73.0046C127.444 70.6375 132.307 68.5946 135.351 67.4842L135.349 67.4841Z" fill="white"/>
<path fill-rule="evenodd" clip-rule="evenodd" d="M60.1064 100.055C60.6077 99.8939 61.1409 99.8749 61.6507 99.9978C63.9492 100.549 68.8137 101.738 72.4907 102.676C73.0069 102.808 73.6505 103.289 73.9246 103.744L74.7254 105.073C75.006 105.539 75.0249 106.112 74.7764 106.595C74.108 107.887 73.1547 109.637 72.1469 111.442L71.3844 112.799C69.9809 115.283 68.5832 117.68 67.7898 118.941C67.2672 119.774 66.9762 120.143 66.0458 120.471C62.4282 121.74 57.9355 123.258 55.2653 124.12C54.7194 124.296 54.5346 124.627 54.6408 125.231C54.8319 126.331 55.448 130.065 55.6838 131.154C55.7708 131.556 56.0938 131.876 56.6928 131.762C58.2711 131.463 62.4729 130.438 62.4729 130.438C62.4729 130.438 61.2344 131.58 60.493 132.254C60.3572 132.381 60.2 132.474 60.0236 132.531C58.8786 132.913 56.0831 133.695 55.2122 133.885C54.5325 134.032 54.0991 133.765 53.9249 132.998C53.9249 132.998 52.7332 127.937 52.302 126.216C52.2339 125.953 52.1662 125.727 52.0831 125.468C51.7601 124.472 50.9849 122.514 50.5473 121.488C50.4963 121.37 50.4707 121.242 50.4728 121.111C50.4871 119.939 50.7024 117.324 50.7024 117.324C50.7024 117.324 53.2748 119.729 54.5196 120.598C54.8002 120.795 54.9678 120.836 55.312 120.749C57.022 120.31 60.9539 119.013 63.1122 118.208C63.605 118.023 64.0362 117.714 64.3718 117.309C66.6044 114.62 69.4042 110.437 71.0207 107.281C71.2439 106.847 71.2863 106.349 71.1459 105.883L70.7975 104.738C70.6955 104.404 70.3408 104.026 70.0137 103.901C66.2091 102.458 63.2097 101.386 59.6856 100.188L60.1064 100.055Z" fill="white"/>
<path fill-rule="evenodd" clip-rule="evenodd" d="M128.277 87.1113L129.592 87.6814C129.981 87.8488 130.336 88.0946 130.629 88.3998C138.69 96.7917 145.138 105.493 146.429 107.786C146.678 108.227 146.848 108.668 146.909 109.172C148.358 121.41 147.113 134.375 144.154 145.653C143.886 146.671 143.587 147.192 142.605 147.927C139.446 150.297 134.73 154.077 130.041 157.93L128.562 159.147C122.913 163.813 117.546 168.38 115.269 170.482C114.697 171.012 114.198 171.609 113.79 172.272C112.722 174.004 111.091 176.983 110.291 178.462L110.067 178.876C109.906 179.174 109.814 179.348 109.814 179.348C108.752 177.036 106.436 171.395 105.642 169.115C105.383 168.371 105.336 167.981 105.61 166.985C106.905 162.257 113.03 148.512 114.221 146.026L114.223 147.044C114.223 147.192 114.202 147.338 114.153 147.478C113.616 149.104 110.323 159.937 109.654 164.635C109.505 165.68 109.518 165.962 109.654 166.987C109.947 169.181 111.262 173.203 111.262 173.203C111.262 173.203 112.042 171.579 112.768 170.482C113.125 169.943 113.34 169.685 113.922 169.108C116.866 166.204 121.889 161.714 127.12 157.2L128.973 155.608C132.991 152.167 137.003 148.819 140.173 146.262C140.997 145.596 141.305 145.151 141.488 143.888C142.397 137.666 142.66 126.498 142.112 118.371C142.008 116.837 141.509 115.354 140.642 114.08C138.654 111.149 136.277 108.375 132.672 104.813C132.158 104.302 131.808 103.649 131.676 102.937C130.624 97.3427 128.277 87.1113 128.277 87.1113Z" fill="white"/>
<path fill-rule="evenodd" clip-rule="evenodd" d="M85.8349 91.1841C85.8349 91.1841 86.5675 93.5508 87.2739 96.121L87.521 97.0331C87.9673 98.7078 88.3653 100.361 88.5094 101.407C88.6477 102.414 88.6242 102.685 88.2652 103.649C87.3946 105.959 85.7927 109.674 84.0838 113.472L83.3467 115.101C81.2501 119.709 79.1273 124.16 78.0965 126.087C77.5888 127.036 77.1108 127.655 76.1549 128.624C73.9733 130.838 69.7971 135.023 67.2119 137.365C66.2729 138.217 66.0202 138.944 65.829 140.046C65.5209 141.815 65.2151 144.835 65.1301 146.395C65.056 147.766 65.2788 148.408 66.0457 149.767C70.6022 157.872 85.8138 176.521 90.1473 180.437C90.4617 180.721 90.6911 180.912 91.3538 181.351C91.9911 181.775 94.0686 183.118 94.0686 183.118C94.1513 183.175 94.2215 183.252 94.2747 183.338L95.0267 184.659C95.0267 184.659 94.9564 184.624 94.8295 184.561L94.5047 184.4C94.2434 184.271 93.8982 184.099 93.5014 183.901L92.5357 183.419C91.0554 182.678 89.2906 181.787 88.3627 181.289C87.9804 181.084 87.6214 180.842 87.2879 180.564C82.2131 176.36 66.6615 158.209 62.0881 150.631C60.9473 148.739 60.8305 148.126 60.9834 146.336C61.2701 143.002 61.7142 138.81 62.1029 136.973C62.3389 135.865 62.583 135.214 63.4348 134.235C66.2973 130.949 69.7888 126.61 73.1911 122.158L74.3871 120.584C79.5432 113.755 84.2929 106.919 86.0664 103.437C86.4722 102.645 86.5061 102.369 86.5147 101.621C86.5362 99.451 85.8434 95.2253 85.6607 94.1573C85.6321 93.9898 85.6247 93.8203 85.6392 93.6508L85.8349 91.1841Z" fill="white"/>
<path fill-rule="evenodd" clip-rule="evenodd" d="M99.7377 118.044C99.7377 118.044 100.324 121.514 100.502 122.52C100.602 123.09 100.623 123.243 100.481 123.802C100.012 125.601 97.8479 135.084 96.1152 144.79L95.8457 146.324C95.1377 150.412 94.5262 154.47 94.17 157.942C93.9682 159.915 94.0342 160.388 94.5566 162.138C96.0372 167.084 101.513 180.007 102.565 182.363C102.682 182.624 102.752 182.897 102.786 183.179L103.181 186.227C101.426 183.584 91.8929 166.107 88.1479 156.429C87.706 155.289 87.621 154.727 88.1097 152.631C90.714 141.512 97.7601 122.618 99.7399 118.044H99.7377Z" fill="white"/>
</svg>
